<svg width="50" height="50" viewBox="0 0 50 50" fill="none" xmlns="http://www.w3.org/2000/svg">
<g clip-path="url(#clip0_1_124)">
<path d="M23.2143 39.2857H26.7857M35.7143 17.8571V10.7143M19.6428 17.8571V5.35713H8.92856V17.8571M42.8571 6.24999C42.8571 6.83625 42.7417 7.41677 42.5173 7.9584C42.293 8.50003 41.9641 8.99217 41.5496 9.40672C41.135 9.82127 40.6429 10.1501 40.1013 10.3745C39.5596 10.5988 38.9791 10.7143 38.3928 10.7143H33.0357C31.8517 10.7143 30.7162 10.2439 29.879 9.40672C29.0418 8.5695 28.5714 7.43399 28.5714 6.24999C28.5714 5.06599 29.0418 3.93048 29.879 3.09326C30.7162 2.25605 31.8517 1.78571 33.0357 1.78571H38.3928C38.9791 1.78571 39.5596 1.90118 40.1013 2.12553C40.6429 2.34988 41.135 2.67872 41.5496 3.09326C41.9641 3.50781 42.293 3.99995 42.5173 4.54158C42.7417 5.08322 42.8571 5.66373 42.8571 6.24999Z" stroke="black" stroke-width="2" stroke-linecap="round" stroke-linejoin="round"/>
<path d="M44.6428 30.3571H5.35713C3.38469 30.3571 1.78571 31.9561 1.78571 33.9285V44.6428C1.78571 46.6153 3.38469 48.2143 5.35713 48.2143H44.6428C46.6153 48.2143 48.2143 46.6153 48.2143 44.6428V33.9285C48.2143 31.9561 46.6153 30.3571 44.6428 30.3571Z" stroke="black" stroke-width="2" stroke-linecap="round" stroke-linejoin="round"/>
<path d="M44.6429 30.3571V21.4285C44.6429 20.4813 44.2666 19.5729 43.5968 18.9032C42.927 18.2334 42.0186 17.8571 41.0714 17.8571H8.92858C7.98137 17.8571 7.07297 18.2334 6.40319 18.9032C5.73342 19.5729 5.35715 20.4813 5.35715 21.4285V30.3571" stroke="black" stroke-width="2" stroke-linecap="round" stroke-linejoin="round"/>
</g>
<defs>
<clipPath id="clip0_1_124">
<rect width="50" height="50" fill="white"/>
</clipPath>
</defs>
</svg>
