<svg width="50" height="50" viewBox="0 0 50 50" fill="none" xmlns="http://www.w3.org/2000/svg"><g clip-path="url(#a)" stroke="#000" stroke-width="2" stroke-linecap="round" stroke-linejoin="round"><path d="M23.214 39.286h3.572m8.928-21.429v-7.143m-16.071 7.143v-12.5H8.929v12.5M42.857 6.25a4.463 4.463 0 0 1-4.464 4.464h-5.357a4.464 4.464 0 0 1 0-8.928h5.357a4.465 4.465 0 0 1 4.464 4.464zm1.786 24.107H5.357a3.571 3.571 0 0 0-3.571 3.572v10.714a3.571 3.571 0 0 0 3.571 3.571h39.286a3.571 3.571 0 0 0 3.571-3.571V33.928a3.571 3.571 0 0 0-3.571-3.57z"/><path d="M44.643 30.357V21.43a3.571 3.571 0 0 0-3.572-3.572H8.93a3.571 3.571 0 0 0-3.572 3.572v8.928"/></g><defs><clipPath id="a"><path fill="#fff" d="M0 0h50v50H0z"/></clipPath></defs></svg>