<svg width="50" height="50" viewBox="0 0 50 50" fill="none" xmlns="http://www.w3.org/2000/svg">
<path d="M39.8906 11.7637L11.7656 39.8887C11.5435 40.0957 11.2496 40.2083 10.946 40.203C10.6424 40.1976 10.3528 40.0746 10.1381 39.8599C9.92336 39.6452 9.80037 39.3556 9.79502 39.052C9.78966 38.7484 9.90235 38.4545 10.1094 38.2324L38.2344 10.1074C38.3429 9.9972 38.4722 9.90958 38.6148 9.84959C38.7574 9.78961 38.9104 9.75845 39.0651 9.75791C39.2198 9.75737 39.3731 9.78747 39.5161 9.84646C39.6591 9.90545 39.789 9.99218 39.8983 10.1016C40.0077 10.2111 40.0942 10.3411 40.1531 10.4842C40.2119 10.6272 40.2418 10.7805 40.2411 10.9352C40.2404 11.0899 40.209 11.2429 40.1489 11.3855C40.0887 11.528 40.0009 11.6572 39.8906 11.7656V11.7637ZM10.1562 19.5312C9.07161 18.4428 8.39799 17.012 8.25017 15.4826C8.10235 13.9532 8.48948 12.4198 9.34559 11.1439C10.2017 9.8679 11.4738 8.92831 12.9451 8.48522C14.4163 8.04213 15.9957 8.12296 17.4141 8.71394C18.8324 9.30492 20.002 10.3695 20.7233 11.7262C21.4447 13.0829 21.6733 14.6477 21.3701 16.1541C21.0669 17.6604 20.2507 19.015 19.0606 19.987C17.8706 20.9589 16.3803 21.4881 14.8437 21.4844C13.9721 21.4846 13.1091 21.3121 12.3045 20.9768C11.5 20.6416 10.7698 20.1503 10.1562 19.5312ZM10.5469 14.8437C10.5472 15.8378 10.8922 16.801 11.5231 17.5693C12.154 18.3375 13.0317 18.8632 14.0067 19.0569C14.9818 19.2505 15.9938 19.1001 16.8704 18.6312C17.7469 18.1623 18.4338 17.404 18.814 16.4855C19.1941 15.567 19.2441 14.5451 18.9552 13.5939C18.6664 12.6427 18.0567 11.821 17.23 11.269C16.4033 10.7169 15.4108 10.4685 14.4215 10.5662C13.4322 10.6639 12.5074 11.1016 11.8047 11.8047C11.4045 12.2029 11.0873 12.6766 10.8714 13.1982C10.6555 13.7199 10.5452 14.2792 10.5469 14.8437ZM41.7969 35.1562C41.8006 36.6928 41.2714 38.1831 40.2994 39.3731C39.3275 40.5632 37.9729 41.3794 36.4666 41.6826C34.9602 41.9858 33.3954 41.7572 32.0387 41.0358C30.682 40.3145 29.6174 39.1449 29.0264 37.7266C28.4355 36.3082 28.3546 34.7288 28.7977 33.2576C29.2408 31.7863 30.1804 30.5142 31.4564 29.6581C32.7323 28.802 34.2657 28.4149 35.7951 28.5627C37.3245 28.7105 38.7553 29.3841 39.8437 30.4687C40.4628 31.0823 40.9541 31.8125 41.2893 32.617C41.6246 33.4216 41.7971 34.2846 41.7969 35.1562ZM39.4531 35.1562C39.4547 34.5917 39.3443 34.0324 39.1284 33.5108C38.9125 32.9891 38.5954 32.5155 38.1953 32.1172C37.4925 31.4141 36.5677 30.9764 35.5785 30.8787C34.5892 30.781 33.5966 31.0294 32.7699 31.5815C31.9432 32.1335 31.3335 32.9552 31.0447 33.9064C30.7559 34.8576 30.8058 35.8795 31.186 36.798C31.5661 37.7165 32.253 38.4748 33.1296 38.9437C34.0061 39.4126 35.0182 39.563 35.9932 39.3694C36.9683 39.1757 37.846 38.65 38.4769 37.8818C39.1078 37.1135 39.4528 36.1503 39.4531 35.1562Z" fill="black"/>
</svg>
