<svg width="50" height="50" viewBox="0 0 50 50" fill="none" xmlns="http://www.w3.org/2000/svg"><path d="M39.89 11.764L11.767 39.889a1.172 1.172 0 0 1-1.657-1.657l28.125-28.125a1.171 1.171 0 1 1 1.657 1.659v-.002zM10.157 19.53a6.64 6.64 0 1 1 4.688 1.953 6.597 6.597 0 0 1-4.688-1.953zm.39-4.687a4.297 4.297 0 1 0 8.595-.003 4.297 4.297 0 0 0-8.594.003zm31.25 20.312a6.64 6.64 0 1 1-1.952-4.687 6.597 6.597 0 0 1 1.953 4.687zm-2.343 0a4.27 4.27 0 0 0-1.258-3.039 4.297 4.297 0 1 0 1.258 3.04z" fill="#000"/></svg>