<svg width="51" height="50" viewBox="0 0 51 50" fill="none" xmlns="http://www.w3.org/2000/svg"><path d="M45.23 23.302l-2.147-2.98a5.209 5.209 0 0 0-4.229-2.187H29.73v-4.458a5.208 5.208 0 0 0-5.208-5.208H10a5.223 5.223 0 0 0-5.208 5.208v20.708a3.125 3.125 0 0 0 3.125 3.125h2.541a4.67 4.67 0 0 0 9.25 0h11.584a4.67 4.67 0 0 0 9.25 0h2.541a3.125 3.125 0 0 0 3.125-3.125v-8.062a5.225 5.225 0 0 0-.979-3.02zM15.082 39.448a2.604 2.604 0 1 1 0-5.207 2.604 2.604 0 0 1 0 5.207zm12.563-4.02h-8.084a4.702 4.702 0 0 0-8.958 0H7.917a1.042 1.042 0 0 1-1.042-1.043V13.677A3.125 3.125 0 0 1 10 10.552h14.52a3.125 3.125 0 0 1 3.126 3.125v21.75zm8.27 4.02a2.604 2.604 0 1 1 0-5.208 2.604 2.604 0 0 1 0 5.208zm8.209-5.063a1.042 1.042 0 0 1-1.042 1.042h-2.687a4.701 4.701 0 0 0-8.959 0H29.73V20.22h9.125a3.158 3.158 0 0 1 2.542 1.312l2.146 2.98c.375.53.578 1.162.583 1.812v8.062z" fill="#000"/><path d="M38.06 25.427h-4.166a1.042 1.042 0 0 1 0-2.083h4.166a1.042 1.042 0 0 1 0 2.083z" fill="#000"/></svg>