<svg width="51" height="50" viewBox="0 0 51 50" fill="none" xmlns="http://www.w3.org/2000/svg">
<path d="M45.2291 23.3021L43.0833 20.3229C42.603 19.6484 41.9688 19.098 41.2333 18.7176C40.4978 18.3372 39.6822 18.1376 38.8541 18.1354H29.7291V13.6771C29.7291 12.2957 29.1804 10.971 28.2036 9.99424C27.2269 9.01748 25.9021 8.46875 24.5208 8.46875H9.99996C8.61981 8.4726 7.29728 9.02257 6.32136 9.99849C5.34544 10.9744 4.79547 12.2969 4.79163 13.6771V34.3854C4.79163 35.2142 5.12087 36.0091 5.70692 36.5951C6.29297 37.1812 7.08782 37.5104 7.91663 37.5104H10.4583C10.6156 38.6251 11.1702 39.6454 12.02 40.3837C12.8698 41.122 13.9576 41.5285 15.0833 41.5285C16.209 41.5285 17.2968 41.122 18.1466 40.3837C18.9964 39.6454 19.551 38.6251 19.7083 37.5104H31.2916C31.4489 38.6251 32.0035 39.6454 32.8533 40.3837C33.7031 41.122 34.7909 41.5285 35.9166 41.5285C37.0423 41.5285 38.1302 41.122 38.9799 40.3837C39.8297 39.6454 40.3843 38.6251 40.5416 37.5104H43.0833C43.9121 37.5104 44.707 37.1812 45.293 36.5951C45.8791 36.0091 46.2083 35.2142 46.2083 34.3854V26.3229C46.2032 25.2388 45.861 24.1831 45.2291 23.3021ZM15.0833 39.4479C14.5682 39.4479 14.0647 39.2952 13.6365 39.009C13.2082 38.7229 12.8745 38.3162 12.6774 37.8403C12.4803 37.3645 12.4287 36.8409 12.5292 36.3357C12.6296 35.8305 12.8777 35.3665 13.2419 35.0023C13.6061 34.6381 14.0701 34.3901 14.5752 34.2896C15.0804 34.1891 15.604 34.2407 16.0799 34.4378C16.5557 34.6349 16.9624 34.9687 17.2486 35.397C17.5347 35.8252 17.6875 36.3287 17.6875 36.8438C17.6875 37.5344 17.4131 38.1968 16.9247 38.6852C16.4363 39.1736 15.774 39.4479 15.0833 39.4479ZM27.6458 35.4271H19.5625C19.2591 34.4773 18.6617 33.6486 17.8566 33.0606C17.0515 32.4725 16.0803 32.1556 15.0833 32.1556C14.0863 32.1556 13.1151 32.4725 12.31 33.0606C11.5048 33.6486 10.9075 34.4773 10.6041 35.4271H7.91663C7.64036 35.4271 7.37541 35.3173 7.18006 35.122C6.98471 34.9266 6.87496 34.6617 6.87496 34.3854V13.6771C6.87496 12.8483 7.2042 12.0534 7.79025 11.4674C8.3763 10.8813 9.17116 10.5521 9.99996 10.5521H24.5208C25.3496 10.5521 26.1445 10.8813 26.7305 11.4674C27.3166 12.0534 27.6458 12.8483 27.6458 13.6771V35.4271ZM35.9166 39.4479C35.4016 39.4479 34.8981 39.2952 34.4698 39.009C34.0416 38.7229 33.7078 38.3162 33.5107 37.8403C33.3136 37.3645 33.262 36.8409 33.3625 36.3357C33.463 35.8305 33.711 35.3665 34.0752 35.0023C34.4394 34.6381 34.9034 34.3901 35.4086 34.2896C35.9137 34.1891 36.4373 34.2407 36.9132 34.4378C37.389 34.6349 37.7958 34.9687 38.0819 35.397C38.3681 35.8252 38.5208 36.3287 38.5208 36.8438C38.5208 37.5344 38.2464 38.1968 37.7581 38.6852C37.2697 39.1736 36.6073 39.4479 35.9166 39.4479ZM44.125 34.3854C44.125 34.6617 44.0152 34.9266 43.8199 35.122C43.6245 35.3173 43.3596 35.4271 43.0833 35.4271H40.3958C40.0925 34.4773 39.4951 33.6486 38.69 33.0606C37.8848 32.4725 36.9136 32.1556 35.9166 32.1556C34.9196 32.1556 33.9484 32.4725 33.1433 33.0606C32.3382 33.6486 31.7408 34.4773 31.4375 35.4271H29.7291V20.2188H38.8541C39.3512 20.2221 39.8404 20.3427 40.2821 20.5708C40.7237 20.7988 41.1053 21.1279 41.3958 21.5313L43.5416 24.5104C43.9166 25.0409 44.1201 25.6734 44.125 26.3229V34.3854Z" fill="black"/>
<path d="M38.0604 25.4271H33.8937C33.6174 25.4271 33.3525 25.3173 33.1571 25.122C32.9618 24.9266 32.8521 24.6617 32.8521 24.3854C32.8521 24.1091 32.9618 23.8442 33.1571 23.6488C33.3525 23.4535 33.6174 23.3438 33.8937 23.3438H38.0604C38.3366 23.3438 38.6016 23.4535 38.797 23.6488C38.9923 23.8442 39.102 24.1091 39.102 24.3854C39.102 24.6617 38.9923 24.9266 38.797 25.122C38.6016 25.3173 38.3366 25.4271 38.0604 25.4271Z" fill="black"/>
</svg>
