<svg width="72" height="63" viewBox="0 0 72 63" fill="none" xmlns="http://www.w3.org/2000/svg">
<path d="M67.4999 0H4.5C2.01487 0 0 2.01487 0 4.5V45.1058C0 47.5909 2.01487 49.6058 4.5 49.6058H13.4674V60.8074C13.4672 61.2508 13.5982 61.6843 13.8438 62.0534C14.0894 62.4225 14.4387 62.7108 14.8477 62.8819C15.1231 62.9975 15.4187 63.0572 15.7173 63.0574C16.3075 63.0578 16.8741 62.8258 17.2946 62.4116L30.3041 49.6058H67.4999C69.985 49.6058 71.9999 47.5909 71.9999 45.1058V4.5C71.9999 2.01495 69.985 0 67.4999 0ZM67.5 45.1046H28.4614L17.9674 55.4344V45.1046H4.5V4.5H67.5V45.1046ZM15.75 27.099H56.25C57.492 27.099 58.5 26.091 58.5 24.849C58.5 23.607 57.492 22.599 56.25 22.599H15.75C14.508 22.599 13.5 23.607 13.5 24.849C13.5 26.091 14.508 27.099 15.75 27.099ZM15.75 18.099H56.25C57.492 18.099 58.5 17.091 58.5 15.849C58.5 14.607 57.492 13.599 56.25 13.599H15.75C14.508 13.599 13.5 14.607 13.5 15.849C13.5 17.091 14.508 18.099 15.75 18.099ZM15.75 36.099H42.75C43.992 36.099 45 35.091 45 33.849C45 32.607 43.992 31.599 42.75 31.599H15.75C14.508 31.599 13.5 32.607 13.5 33.849C13.5 35.091 14.508 36.099 15.75 36.099Z" fill="white"/>
</svg>
