<svg width="72" height="63" viewBox="0 0 72 63" fill="none" xmlns="http://www.w3.org/2000/svg"><path d="M67.5 0h-63A4.5 4.5 0 0 0 0 4.5v40.606a4.5 4.5 0 0 0 4.5 4.5h8.967v11.201a2.247 2.247 0 0 0 2.25 2.25 2.25 2.25 0 0 0 1.578-.645l13.01-12.806H67.5a4.5 4.5 0 0 0 4.5-4.5V4.5A4.5 4.5 0 0 0 67.5 0zm0 45.105H28.461l-10.494 10.33v-10.33H4.5V4.5h63v40.605zM15.75 27.099h40.5a2.25 2.25 0 0 0 0-4.5h-40.5a2.25 2.25 0 0 0 0 4.5zm0-9h40.5a2.25 2.25 0 0 0 0-4.5h-40.5a2.25 2.25 0 0 0 0 4.5zm0 18h27a2.25 2.25 0 0 0 0-4.5h-27a2.25 2.25 0 0 0 0 4.5z" fill="#fff"/></svg>